<svg width="303" height="272" viewBox="0 0 303 272" fill="none" xmlns="http://www.w3.org/2000/svg">
<path d="M140.8 149.446L132.795 149.963C131.751 150.03 130.936 150.891 130.924 151.937L130.272 210.92C130.206 216.908 129.756 222.901 128.597 228.777C125.51 244.433 121.653 254.737 115.259 269.118C114.663 270.458 115.655 271.971 117.121 271.946L155.426 271.291C157.012 271.264 157.944 269.481 157.121 268.125C149.686 255.865 147.202 243.517 143.676 218.757L142.928 151.42C142.915 150.274 141.944 149.373 140.8 149.446Z" fill="#A00206"/>
<path d="M279.098 270.228V243.378C279.098 242.794 279.601 242.333 280.183 242.391C285.153 242.887 288.398 243.85 291.177 245.832C294.956 248.527 297.141 252.876 298.839 257.195C300.507 261.437 301.52 265.08 302.426 270.058C302.537 270.668 302.066 271.228 301.446 271.228H280.098C279.545 271.228 279.098 270.781 279.098 270.228Z" fill="#A00206"/>
<path d="M94.9433 272H83.0857C81.6406 272 80.6725 270.512 81.2419 269.184C89.9806 248.799 95.2958 229.751 95.5022 214.358C95.5343 211.967 94.5501 209.696 92.9146 207.952L91.285 206.213C90.2424 205.101 89.6622 203.634 89.6622 202.11V159.659C89.6622 158.336 90.9267 157.379 92.2041 157.724C101.976 160.359 108.103 161.449 117.073 161.947C118.141 162.006 118.984 162.885 118.984 163.955V198.334C118.984 204.478 118.448 210.62 117.284 216.653C112.84 239.668 108.573 255.248 99.885 269.302C98.8314 271.006 96.9471 272 94.9433 272Z" fill="white"/>
<path d="M119.485 148.88C108.563 148.383 101.963 147.267 91.6029 143.476C90.4332 143.048 89.6622 141.928 89.6622 140.683V133.41C89.6622 132.367 90.4673 131.501 91.5057 131.405C102.447 130.398 108.964 128.506 119.117 124.081C119.78 123.792 120.527 124.275 120.527 124.999V147.883C120.527 148.451 120.053 148.906 119.485 148.88Z" fill="white"/>
<circle cx="186.502" cy="47.0695" r="29.322" fill="white"/>
<path d="M49.5374 216.036L50.291 126.755C50.3007 125.599 49.3305 124.675 48.1758 124.742L37.9625 125.331C33.6588 125.579 29.8603 122.373 29.7526 118.064C29.6556 114.18 29.8719 110.827 30.4712 107.131C31.0623 103.486 34.6221 101.213 38.3039 101.505C53.1976 102.683 72.081 100.037 104.022 96.4539C114.686 95.3158 117.273 103.111 119.452 110.088C119.855 111.379 119.36 112.793 118.213 113.509C108.674 119.462 100.705 121.802 80.6022 122.65C80.0656 122.673 79.631 123.114 79.631 123.651V188.431C79.631 202.137 77.8984 215.916 72.6045 228.559C55.8954 268.463 35.7104 273.606 0 271.614C0 271.614 19.938 261.843 29.8608 253.715C41.1955 244.43 48.4484 228.458 49.5374 216.036Z" fill="#A00206"/>
<path d="M76.7361 90.6908C68.6556 91.9763 63.2458 92.4623 54.9988 92.5758C53.899 92.5909 52.9985 91.7077 52.9845 90.6079L52.7668 73.4028C52.6718 65.9001 53.2234 58.3543 55.2656 51.1342C62.7236 24.7661 75.8258 11.5361 101.808 4.06929C109.8 1.77259 118.148 1.05467 126.461 0.850263L159.806 0.030291C160.441 0.0146787 160.93 0.587172 160.814 1.21169L154.479 35.495L153.708 46.6837C154.477 63.0827 157.081 72.367 163.709 78.4539C171.658 85.7535 183.553 86.0458 194.293 84.9933C199.048 84.5273 203.313 83.9772 207.136 83.4599C216.227 82.2298 225.585 82.0025 234.266 84.9674C246.796 89.2467 255.154 97.2912 262.977 115.923C266.617 124.593 267.909 134.041 267.909 143.445V268.938C267.909 270.004 267.066 270.885 266 270.927C242.461 271.863 231.387 268.105 218.525 251.166C213.04 244.685 205.035 230.904 192.675 210.27L157.058 146.909C156.496 145.908 156.892 144.642 157.917 144.123C161.581 142.269 164.266 140.7 165.761 139.076C169.348 135.184 164.831 127.882 159.631 126.891C159.183 126.806 158.702 126.744 158.184 126.704C154.225 126.398 150.157 127.733 147.351 130.543C145.871 132.026 144.88 133.618 143.968 135.693C143.524 136.703 142.609 137.438 141.515 137.579L134.443 138.492C132.747 138.711 131.212 137.47 131.07 135.766L129.787 120.374C129.464 113.553 128.871 109.511 124.771 100.698C116.712 86.8185 109.053 83.9339 90.6723 87.6737C89.9944 87.8117 89.3713 87.2413 89.5047 86.5626C90.5545 81.2234 93.3444 78.8474 100.465 76.0057C130.434 67.4137 144.503 72.9486 165.282 99.1546L239.052 218.09C239.583 218.945 240.902 218.569 240.902 217.563V123.075C240.352 114.798 239.57 110.475 236.658 103.784C229.473 88.3399 210.817 89.7689 198.462 91.0525C186.107 92.3361 182.4 93.13 172.227 90.2808C153.881 82.7452 148.429 73.2168 145.991 48.227C145.175 37.0469 142.733 32.0696 130.559 28.1645C122.422 26.3292 117.861 26.4725 109.725 28.1645C95.0663 33.3013 87.99 39.13 83.1193 50.49C79.9121 57.97 79.2452 66.2384 79.2452 74.377V87.7408C79.2452 89.2068 78.1838 90.4605 76.7361 90.6908Z" fill="#A00206"/>
</svg>
